# xmcd
# 
# Track frame offsets:
#     150
#     9344
#     27555
#     47509
#     67043
#     81640
#     100627
#     123567
#     141851
#     164076
#     176306
#     198391
#     215800
#     231482
#     249854
#     270174
# 
# Disc length: 3989
# 
# Revision: 0
# Processed by: cddbd v1.5.2PL0 Copyright (c) Steve Scherf et al.
# Submitted via: fre:ac v1.0.27
# 
DISCID=e30f9310
DTITLE=Various Artist - ACT 08: Magic Moments 3
DYEAR=2006
DGENRE=Jazz
TTITLE0=Heinz Sauer, Michael Wollny  - Welcome to What You Hear
TTITLE1=Ulf Wakenius, Lars Danielsson, Morten Lund  - Dancing
TTITLE2=Viktoria Lolstoy - From Above
TTITLE3=Colin Steele, Dave Milligan - Don Camillo's Revenge
TTITLE4=Nils Landgren, Joe Sample - Don't Take Your Love to Hollywood
TTITLE5=Peter Apfelbaum, New York Hieroglyphics - Rainbow Sign
TTITLE6=Solveig Slettahjell - What Is This Thing Called Love
TTITLE7=Jonas Knutsson, Johan Norberg - Jämtpelle
TTITLE8=Kevin Hays - You Are My Sunshine
TTITLE9=Albert Mangelsdorff, NDR Bigband - Mood Indigo
TTITLE10=Rigmor Gustafsson, Jacky Terrasson Trio - Windows of the World
TTITLE11=Elbtonalpercussion, Christopher Dell - African Blues
TTITLE12=Muriel Zoe - Have a Good Time
TTITLE13=Young Friends, Michael Wollny, Florian Trübsbach - Dein ist mein ganzes Herz
TTITLE14=Jazzindeed, Michael Schiefel - Fahr, fahrn, fahrn auf der Autobahn
TTITLE15=Esbjörn Svensson Trio - The Rube Thing
EXTD=YEAR: 2006
EXTT0=
EXTT1=
EXTT2=
EXTT3=
EXTT4=
EXTT5=
EXTT6=
EXTT7=
EXTT8=
EXTT9=
EXTT10=
EXTT11=
EXTT12=
EXTT13=
EXTT14=
EXTT15=
PLAYORDER=
